<?xml version="1.0" encoding="UTF-8"?>
<svg width="48px" height="48px" viewBox="0 0 48 48" version="1.1" xmlns="http://www.w3.org/2000/svg" xmlns:xlink="http://www.w3.org/1999/xlink">
    <title>ic_add</title>
    <g id="页面-1" stroke="none" stroke-width="1" fill="none" fill-rule="evenodd">
        <g id="03客户_01列表_为空" transform="translate(-598.000000, -152.000000)" fill="currentColor">
            <g id="全局/组合/标题栏/Title+Screen" transform="translate(0.000000, 128.000000)">
                <g id="图标" transform="translate(598.000000, 24.000000)">
                    <path d="M24,8 C24.8284271,8 25.5,8.67157288 25.5,9.5 L25.5,22.499 L38.5,22.5 C39.3284271,22.5 40,23.1715729 40,24 C40,24.8284271 39.3284271,25.5 38.5,25.5 L25.5,25.499 L25.5,38.5 C25.5,39.3284271 24.8284271,40 24,40 C23.1715729,40 22.5,39.3284271 22.5,38.5 L22.5,25.499 L9.5,25.5 C8.67157288,25.5 8,24.8284271 8,24 C8,23.1715729 8.67157288,22.5 9.5,22.5 L22.5,22.499 L22.5,9.5 C22.5,8.67157288 23.1715729,8 24,8 Z" id="转曲"></path>
                </g>
            </g>
        </g>
    </g>
</svg>