<svg xml:space="preserve" style="enable-background:new 0 0 3000 3000;" viewBox="0 0 3000 3000" y="0px" x="0px" xmlns:xlink="http://www.w3.org/1999/xlink" xmlns="http://www.w3.org/2000/svg" id="Layer_1" version="1.1">
<style type="text/css">
	.st0{fill:#FFFFFF;stroke:#1A1A1A;stroke-width:3.9172;stroke-linecap:round;stroke-linejoin:round;stroke-miterlimit:10;}
	.st1{fill:#1C0311;stroke:#1A1A1A;stroke-width:1.9586;stroke-linecap:round;stroke-linejoin:round;stroke-miterlimit:10;}
	.st2{fill:none;stroke:#1A1A1A;stroke-width:5.8758;stroke-linecap:round;stroke-linejoin:round;stroke-miterlimit:10;}
	
		.st3{fill:none;stroke:#1A1A1A;stroke-width:3.9172;stroke-linecap:round;stroke-linejoin:round;stroke-miterlimit:10;stroke-dasharray:23.5033;}
	.st4{fill:#54CAFA;stroke:#1A1A1A;stroke-width:3.9172;stroke-linecap:round;stroke-linejoin:round;stroke-miterlimit:10;}
	.st5{fill:none;}
</style>
<g>
	<ellipse ry="172.1" rx="434.9" cy="2518.4" cx="506.9" class="st0"></ellipse>
	<path d="M962.7,2312.3c10.8,7.4,21.7,15,33,21.8c44,26.4,93.2,47.1,145.5,37.8c1747.7,89.5,1723.1-259.7,1723.1-259.7
		l-2541.6,0c0,0,163.2,80.7,209.8,108.5c63.7,38.1,142.7,61.5,217.5,64c19.5,0.7,39.1-0.1,58.5-2.3c19.3-2.2,39.3-10.1,58.4-11
		C901.1,2269.7,935.9,2293.9,962.7,2312.3z" class="st0"></path>
	<g>
		<g>
			<circle r="98.3" cy="926.6" cx="2723.3" class="st0"></circle>
			<rect height="15.4" width="95.2" class="st1" y="872.5" x="2674.9"></rect>
			<rect height="15.4" width="95.2" class="st1" y="920.2" x="2674.9"></rect>
			<rect height="15.4" width="95.2" class="st1" y="965.2" x="2674.9"></rect>
		</g>
		<path d="M1353.9,2111.8c472.3-3.6,949.1,2.9,1421.4-0.7c75.8-78.3,92.4-192.1,44.3-276.3
			c-52.9-92.6-159.5-106.6-171.8-108c-63.7-195.8-247.9-299.3-396.7-260.4c-147,38.5-204.1,201.6-209,216.1
			c-106-37.9-212.1-14.3-262.1,53.1c-26.8,36.1-31.8,77.2-31.9,104.5c-113.2-211.3-314-271.6-403.8-212.5
			c-68.7,45.2-89.7,171.7-56.7,301.1c-25,5.3-73.1,19-81.5,49.6C1195.2,2017.9,1247.6,2070.9,1353.9,2111.8z" class="st2"></path>
		<path d="M393.7,2110.5c654.8,0,1309.6,0,1964.4,0c-58.8-55.9-150.2-132.5-275.8-199.9
			c-122.4-65.7-473.8-254.3-761.4-104.2c-53.3,27.8-122.9,76.9-187.1,168c-32.9-28.6-149.8-122.9-319-121.2
			C546.6,1855.8,401.4,2097.2,393.7,2110.5z" class="st0"></path>
		<line y2="2112.2" x2="2928" y1="2112.2" x1="276.5" class="st2"></line>
		<path d="M1423,2090.6c0,4.3,804.2-12.8,804.2-12.8l325.1,90.4l-762.7,20.2L1423,2090.6z" class="st0"></path>
		<polygon points="1423,2123.7 1423,2090.6 1789.5,2188.4 1789.5,2265" class="st1"></polygon>
		<polygon points="2552.3,2168.2 2552.3,2238.1 1789.5,2265 1789.5,2188.4" class="st0"></polygon>
		<polygon points="1730.7,1972.2 1687.4,2090.6 1741.1,2103.2 1789.5,1965.1" class="st1"></polygon>
		<polygon points="2146.1,1958.8 2146.1,2090.6 1741.1,2103.2 1789.5,1965.1" class="st0"></polygon>
		<g>
			<path d="M1439.3,1988.1c0,0-27.7,2.6-80.9,4.7c-53.2,2.1-83-57-83-57L1137.2,916c-5.6-39.3,9.7-63,43.3-77.9
				c0,0,27.6-12.7,55-19.9" class="st1"></path>
			<path d="M2465.2,1965.3L1447,1990.2c-66.3,1.6-127.6-49.7-136.4-114.5L1180.4,915c-8.3-60.9,37.9-107.5,102.6-104.3
				l995.1,49c56.5,2.8,109.8,50.6,119.5,107l152.9,887.8C2560.9,1914.2,2522.8,1963.9,2465.2,1965.3z" class="st0"></path>
			<path d="M2356.3,984.1c-7.4-43.3-48.3-79.9-91.6-81.9L1313,858.1c-49.2-2.3-84.2,33.4-77.9,79.8l1.6,11.8
				l1121.3,45.4L2356.3,984.1z" class="st0"></path>
			<path d="M1250.8,1051.9l109.5,798.8c6.7,49.2,53.3,88.3,103.7,87.2l971.8-20.6c44.1-0.9,73.4-38.8,65.6-84.4
				l-126.9-742.7L1250.8,1051.9z" class="st0"></path>
			<polygon points="2358.1,995.1 1236.8,949.7 1250.8,1051.9 2374.4,1090.2" class="st1"></polygon>
			<polygon points="1488.4,1027.2 1322.7,1021.2 1317.6,984.7 1483.2,991.1" class="st0"></polygon>
			<polygon points="1705,1035 1543.8,1029.2 1538.5,993.2 1699.6,999.4" class="st0"></polygon>
			<polygon points="2197.9,1052.9 2046.7,1047.4 2041.1,1012.5 2192.2,1018.3" class="st0"></polygon>
			<path d="M2312.8,1040c-2.3-13.5-15-24.9-28.5-25.4c-13.5-0.5-22.6,10-20.3,23.6c2.3,13.6,15.1,25,28.6,25.4
				C2306,1064.1,2315.1,1053.5,2312.8,1040z" class="st0"></path>
			<polygon points="2170,1836.1 1411,1847.9 1306.2,1090.9 2053.8,1114.7" class="st0"></polygon>
			<polygon points="1799.8,1841.9 1411,1847.9 1306.2,1090.9 1688.9,1103.1" class="st3"></polygon>
			<polygon points="2501,1831 2212.2,1835.5 2095.4,1116 2380.4,1125.1" class="st0"></polygon>
			<polygon points="2111.3,1471.5 1358,1465.1 1306.2,1090.9 2053.8,1114.7" class="st3"></polygon>
			<polygon points="2362.1,1220.1 2149.6,1214.7 2138.9,1149 2351.1,1155.4" class="st0"></polygon>
			<polygon points="2384.5,1352.2 2171.5,1348.6 2160.7,1282.5 2373.5,1286.9" class="st0"></polygon>
			<polygon points="2407.2,1485.3 2193.6,1483.7 2182.7,1417 2396,1419.6" class="st0"></polygon>
			<polygon points="2430,1619.6 2215.8,1619.8 2204.8,1552.6 2418.7,1553.3" class="st1"></polygon>
			<polygon points="2453,1754.9 2238.3,1757.1 2227.2,1689.3 2441.6,1688" class="st1"></polygon>
		</g>
		<g>
			<path d="M1114.2,2130.4c-12.8-12.1-26.2-22.2-26.2-22.2s-58.2,31.9-53.2,37.5c2,2.3,3.2,15.3,3.8,33
				C1070.6,2178.4,1097.8,2158.1,1114.2,2130.4z" class="st1"></path>
			<path d="M1136.9,2160.6c-1.3-8.2-11.8-19.9-22.7-30.2c-16.4,27.8-43.6,48.1-75.6,48.3c0.9,25.8,0.6,61.8-0.3,89.5
				c-1.4,46.7,17,81.4,49.7,77.9C1120.6,2342.5,1139.8,2178.3,1136.9,2160.6z" class="st0"></path>
			<path d="M916.2,1690.5c9.9,147.3,134.5,352.2,152.1,376.6s31.9,40.9,33,52.6c1.1,11.7-33.5,46.2-66.5,46.2
				c-106.5-20.2-261.9-253.8-390.8-407.8s64.9-526.4,87.7-570.3c22.7-43.9,59.6-34,59.6-34l270.8,49.6" class="st0"></path>
			<path d="M566,2496.1c4.2-22.5,5.6-43.5,11.9-54.8c10.3-18.4-58.7-14.8-58.7-14.8s-9.4,37.1-20.8,54.6
				C516.3,2494.7,541.5,2498.4,566,2496.1z" class="st1"></path>
			<path d="M498.4,2480.9c-2,3-4,5.4-6,7c-14,10.6-115.2,56.1-129.4,127.7c2.9,21.3,33.1,34.2,83.8,6.8
				c50.7-27.4,89.1-50.4,106.4-84.9c6.6-13.1,10.3-27.6,12.9-41.5C541.5,2498.4,516.3,2494.7,498.4,2480.9z" class="st0"></path>
			<path d="M832.4,1359.9c0,0-68.1,125.3-157.6,327.1S490.1,2454.2,497,2468.5c6.9,14.3,42.9,20.5,67.1,7.8
				c79.5-83.5,252.7-519.7,298.1-647.1c151.9-114.7,272.6-382.3,282.5-465.8s-32.7-150.1-32.7-150.1l-73.9-23.2" class="st0"></path>
			<path d="M763.1,1168.6c0,0,20.9,38.4,63.5,38.4c42.6,0,128.5-9.1,158.5,7.7c30,16.8,118,31.4,135.4,25.8
				c-1.4-22.3-1.4-22.3-1.4-22.3l-328.8-79.6l-27.2,18V1168.6z" class="st1"></path>
			<path d="M770.7,991.4c0,0-35.1,131.7,13.8,178.4c49,46.7,151.5,15.2,190.6,32.2c39,17,115,43.9,160.4,25.5
				c45.4-18.4,24.8-135.2,24.1-164.2c-0.7-29-22-343.4-22-343.4s-75.2-83.6-225.4-47.8C834.5,768.7,770.7,991.4,770.7,991.4z" class="st4"></path>
			<path d="M1033.7,603.2c0,0-10.3,49.7-16,54.3c-60.3,6.9-60.3,6.9-60.3,6.9s-7.5,42.3,81.6,60.3
				c59.6,12.7,84.6-17.5,84.6-17.5s-11.8-13.3-22.8-23.6c-3.9-30.1-2.8-71.9-0.7-80.5c2.1-8.7,68.1-69.6,51.1-110.6
				c-17-41.1-106.5-80-121.4-73.6c-14.9,6.4-34.8,58.8-34.8,58.8S966,600,1033.7,603.2z" class="st0"></path>
			<path d="M1133.2,715.5c0,0,134.3,98.9,118,210.4c-13.1,90.2-46.8,228.7-126.3,240.7c-79.5,12-181.7-27.6-253.4-176.3
				c38.3-34,44.7-41.9,44.7-41.9s64.6,63.8,96.5,72.3c31.9,8.5,124.9,29.7,113.6-93.5" class="st4"></path>
			<path d="M1066.7,601.6c0,0-23.9,2.9-33,1.6" class="st0"></path>
			<path d="M995.1,700.9c0,0,1.6-35.6-2.4-56.8c-0.5-8.5,1.1-10.1,6.7-8c-0.3-13.8-5.1-38.8,9.1-38
				c14.1,0.8,36.7,13.5,36.5,28.9c-0.3,15.4,6.1,44.3-9.6,58.7c-15.7,14.3-14.1,27.3-14.1,27.3L995.1,700.9z" class="st0"></path>
			<path d="M957.4,664.5c-18.1,4-57,4.5-84.1,20C783.6,735.7,658,856.4,718.1,986c52.5,113.3,216.5,2.1,269.7-125.3
				c0,0,31.9-65.5,39-147.6c-2.1-6.4-31.9-20.2-39-16.6s-28.7,31.5-37.8,45.8c-9.1,14.3-77.7,113.1-102.2,112.6" class="st4"></path>
			<path d="M1023.7,468.5c0,0-29.8,22.7-48.3,6.4s-20.6-85,31.6-90.6c32.3-5.3,56.4,16.3,56.4,16.3s36.6-54.2,77.7-23
				c41.2,31.2,30.5,66.5,19.9,80c-10.6,13.5,8.5,18.8,37.6,29.4c29.1,10.6,28,69-15.3,68.3c-17,2.8-1.4,21.6,12.4,43.9
				c13.8,22.3,1,50.3-41.9,41.4c-42.9-8.8-60.1-45-62.9-53.1c16.1-17.7,14.3-45,10-50.3c24.1,5.3,36.2-15.2,34.8-26.2
				s-21.3-34.7-46.8-13.1c-27.7-17.7-49.7-40-51.1-49.9C1030.1,467.5,1023.7,468.5,1023.7,468.5z" class="st1"></path>
		</g>
		<circle r="56.6" cy="1419.2" cx="2650.2" class="st1"></circle>
		<circle r="29.3" cy="1234.9" cx="2754.9" class="st2"></circle>
		<g>
			<circle r="108" cy="627.8" cx="2182.7" class="st0"></circle>
			<path d="M2248.1,678.3l-46.7-46.7c-0.7-0.7-1.5-1.3-2.4-1.8c4.7-7.2,7.4-15.8,7.4-25c0-25.5-20.7-46.2-46.2-46.2
				c-25.5,0-46.2,20.7-46.2,46.2s20.7,46.2,46.2,46.2c8.7,0,16.8-2.4,23.7-6.6c0.5,1,1.2,1.9,2,2.7l46.7,46.7
				c4.3,4.3,11.2,4.3,15.5,0C2252.4,689.6,2252.4,682.6,2248.1,678.3z M2189.3,629.3c-1.6,2-3.5,3.7-5.5,5.3
				c-6.5,5.1-14.6,8.2-23.5,8.2c-21,0-38-17-38-38c0-21,17-38,38-38c21,0,38,17,38,38C2198.2,614.2,2194.9,622.7,2189.3,629.3z" class="st1"></path>
		</g>
	</g>
	<path d="M1074.3,1317.3c0,0-64.1,253.4-209.6,393S566,2401.5,566,2401.5" class="st3"></path>
	<path d="M978.9,1282.5c0,0-25.1,73.7,23,123" class="st0"></path>
	<g>
		<path d="M317.1,1854c0,1.5,0.1,3,0.2,4.5c-22.2,4.9-46.4-1.2-63.7-18.5c-26.9-26.9-26.9-70.4,0-97.3
			c26.9-26.9,70.4-26.9,97.3,0c13.8,13.8,20.5,31.9,20.1,50C340.6,1796.6,317.1,1822.5,317.1,1854z" class="st0"></path>
		<path d="M440.7,1854c0,34.1-27.7,61.8-61.8,61.8c-32.6,0-59.3-25.2-61.6-57.2c12.3-2.7,24-8.9,33.6-18.5
			c13.1-13.1,19.8-30.1,20.1-47.3c2.6-0.3,5.2-0.5,7.9-0.5C413,1792.2,440.7,1819.8,440.7,1854z" class="st1"></path>
	</g>
	<g>
		<polygon points="1842.8,525.2 1842.8,541.2 1771.3,649.1 1928.8,649.1 1850,540.8 1850,525.2" class="st0"></polygon>
		<line y2="523.6" x2="1846" y1="309.5" x1="1846" class="st0"></line>
	</g>
	<g>
		<polygon points="2471,525.2 2471,541.2 2399.5,649.1 2557,649.1 2478.3,540.8 2478.3,525.2" class="st0"></polygon>
		<line y2="523.6" x2="2474.2" y1="309.5" x1="2474.2" class="st0"></line>
	</g>
	<g>
		<circle r="103.9" cy="1451.2" cx="233.5" class="st0"></circle>
		<path d="M233.5,1508.7c0,0-88.9-44-58.6-87.3c29.5-42.1,58.6,8.2,58.6,8.2s29.1-50.3,58.6-8.2
			C322.4,1464.7,233.5,1508.7,233.5,1508.7z" class="st0"></path>
	</g>
	<rect height="3000" width="3000" class="st5"></rect>
</g>
</svg>
